<svg width="217" height="164" viewBox="0 0 217 164" fill="none">
<path d="M43.3396 103.008C39.4729 100.875 36.6063 98.3413 34.7396 95.4079C32.8729 92.3413 31.9396 88.6079 31.9396 84.2079C31.9396 74.0746 38.0729 63.1413 50.3396 51.4079L59.5396 57.4079L59.9396 59.4079C54.6063 65.2746 51.9396 70.9413 51.9396 76.4079C51.9396 79.608 52.5396 82.3413 53.7396 84.6079C54.9396 86.8746 57.0063 88.8746 59.9396 90.6079V92.808C54.3396 97.0746 48.8063 100.475 43.3396 103.008ZM76.3396 103.008C72.4729 100.875 69.6063 98.3413 67.7396 95.4079C65.8729 92.3413 64.9396 88.6079 64.9396 84.2079C64.9396 74.0746 71.0729 63.1413 83.3396 51.4079L92.5396 57.4079L92.9396 59.4079C87.6063 65.2746 84.9396 70.9413 84.9396 76.4079C84.9396 79.608 85.5396 82.3413 86.7396 84.6079C87.9396 86.8746 90.0063 88.8746 92.9396 90.6079V92.808C87.3396 97.0746 81.8063 100.475 76.3396 103.008Z" fill="#0E6477"/>
<g filter="url(#filter0_d)">
<path d="M85.5286 88.7481C84.8806 90.0201 84.1246 91.0641 83.2606 91.8801L82.8646 92.0241C78.4006 90.3681 74.4526 88.0761 71.0206 85.1481H70.2646C67.0006 85.1481 64.4806 84.1401 62.7046 82.1241C60.9286 80.0841 60.0406 77.2041 60.0406 73.4841C60.0406 69.5721 60.9886 66.5601 62.8846 64.4481C64.8046 62.3361 67.5166 61.2801 71.0206 61.2801C74.2846 61.2801 76.7926 62.2761 78.5446 64.2681C80.3206 66.2361 81.2086 69.0681 81.2086 72.7641C81.2086 75.5481 80.7046 77.9121 79.6966 79.8561C78.6886 81.8001 77.2486 83.2161 75.3766 84.1041C78.5206 86.0241 81.8446 87.4041 85.3486 88.2441L85.5286 88.7481ZM65.1166 72.9441C65.1166 75.9681 65.5486 78.1281 66.4126 79.4241C67.2766 80.7201 68.6926 81.3681 70.6606 81.3681C72.5326 81.3681 73.9006 80.7561 74.7646 79.5321C75.6526 78.3081 76.0966 76.3281 76.0966 73.5921C76.0966 70.5921 75.6646 68.4561 74.8006 67.1841C73.9366 65.8881 72.5206 65.2401 70.5526 65.2401C68.6326 65.2401 67.2406 65.8401 66.3766 67.0401C65.5366 68.2401 65.1166 70.2081 65.1166 72.9441ZM103.039 73.3761L103.003 76.4361C103.027 79.1961 102.223 81.3321 100.591 82.8441C98.9595 84.3561 96.6195 85.1121 93.5715 85.1121C90.6435 85.1121 88.4115 84.3801 86.8755 82.9161C85.3395 81.4521 84.6075 79.3521 84.6795 76.6161L84.7155 73.2681L84.6075 61.6041H89.5035L89.2515 75.9681C89.2275 77.7201 89.5995 79.0161 90.3675 79.8561C91.1355 80.6961 92.2995 81.1161 93.8595 81.1161C96.9795 81.1161 98.5275 79.4841 98.5035 76.2201L98.2515 61.6041H103.219L103.039 73.3761ZM117.357 61.2801C120.621 61.2801 123.129 62.2761 124.881 64.2681C126.657 66.2361 127.545 69.0441 127.545 72.6921C127.545 76.6761 126.585 79.7481 124.665 81.9081C122.745 84.0681 120.033 85.1481 116.529 85.1481C113.289 85.1481 110.781 84.1401 109.005 82.1241C107.253 80.0841 106.377 77.2041 106.377 73.4841C106.377 69.5721 107.325 66.5601 109.221 64.4481C111.141 62.3361 113.853 61.2801 117.357 61.2801ZM116.925 65.2041C115.005 65.2041 113.613 65.8041 112.749 67.0041C111.885 68.2041 111.453 70.1601 111.453 72.8721C111.453 75.9681 111.873 78.1761 112.713 79.4961C113.577 80.8161 114.993 81.4761 116.961 81.4761C118.881 81.4761 120.273 80.8761 121.137 79.6761C122.001 78.4521 122.433 76.4601 122.433 73.7001C122.433 70.6521 122.001 68.4801 121.137 67.1841C120.297 65.8641 118.893 65.2041 116.925 65.2041ZM144.98 62.0001L144.692 65.6361L140.336 65.4201H138.896L138.716 77.4441L138.932 84.7881H134.036L134.288 77.8761L134.108 65.4201H132.668L128.24 65.6361L127.916 65.2401L128.24 61.6041H144.692L144.98 62.0001ZM162.729 80.7561L163.017 81.1521L162.693 84.7881H148.149L148.401 77.8761L148.149 61.6041H162.837L163.125 62.0001L162.765 65.6361L157.221 65.4561L153.045 65.4921L152.937 71.0721L156.933 71.1441L160.713 71.0361L161.001 71.3961L160.677 75.0321L156.573 74.9241L152.865 74.9601L152.829 77.4441L152.937 80.9361L157.005 80.9721L162.729 80.7561Z" fill="url(#paint0_linear)"/>
</g>
<path d="M151.207 50.9046C155.074 53.038 157.941 55.638 159.807 58.7046C161.674 61.638 162.607 65.3046 162.607 69.7046C162.607 79.838 156.474 90.7713 144.207 102.505L135.007 96.5046L134.607 94.5046C139.941 88.638 142.607 82.9713 142.607 77.5046C142.607 74.3046 142.007 71.5713 140.807 69.3046C139.607 67.038 137.541 65.038 134.607 63.3046V61.1046C140.207 56.838 145.741 53.438 151.207 50.9046ZM183.007 50.9046C186.874 53.038 189.741 55.638 191.607 58.7046C193.474 61.638 194.407 65.3046 194.407 69.7046C194.407 79.838 188.274 90.7713 176.007 102.505L166.807 96.5046L166.407 94.5046C171.741 88.638 174.407 82.9713 174.407 77.5046C174.407 74.3046 173.807 71.5713 172.607 69.3046C171.407 67.038 169.341 65.038 166.407 63.3046V61.1046C172.007 56.838 177.541 53.438 183.007 50.9046Z" fill="#A93CDC" fill-opacity="0.45"/>
<defs>
<filter id="filter0_d" x="10.0406" y="11.2801" width="203.085" height="130.744" filterUnits="userSpaceOnUse" color-interpolation-filters="sRGB">
<feFlood flood-opacity="0" result="BackgroundImageFix"/>
<feColorMatrix in="SourceAlpha" type="matrix" values="0 0 0 0 0 0 0 0 0 0 0 0 0 0 0 0 0 0 127 0"/>
<feOffset/>
<feGaussianBlur stdDeviation="25"/>
<feColorMatrix type="matrix" values="0 0 0 0 1 0 0 0 0 1 0 0 0 0 1 0 0 0 0.25 0"/>
<feBlend mode="normal" in2="BackgroundImageFix" result="effect1_dropShadow"/>
<feBlend mode="normal" in="SourceGraphic" in2="effect1_dropShadow" result="shape"/>
</filter>
<linearGradient id="paint0_linear" x1="174.028" y1="73.5045" x2="48.6619" y2="73.5045" gradientUnits="userSpaceOnUse">
<stop stop-color="#DF4646"/>
<stop offset="1" stop-color="#B823A0"/>
</linearGradient>
</defs>
</svg>
