<?xml version="1.0" standalone="no"?>
<!DOCTYPE svg PUBLIC "-//W3C//DTD SVG 20010904//EN"
 "http://www.w3.org/TR/2001/REC-SVG-20010904/DTD/svg10.dtd">
<svg version="1.0" xmlns="http://www.w3.org/2000/svg"
 width="2432.000000pt" height="2432.000000pt" viewBox="0 0 2432.000000 2432.000000"
 preserveAspectRatio="xMidYMid meet">
<metadata>
Created by potrace 1.11, written by Peter Selinger 2001-2013
</metadata>
<g transform="translate(0.000000,2432.000000) scale(0.100000,-0.100000)"
fill="#000000" stroke="none">
<path d="M17104 16360 c-722 -369 -1396 -796 -2119 -1340 -286 -215 -285 -215
-285 -261 l0 -39 -59 0 c-33 0 -62 -4 -65 -8 -3 -5 -17 -140 -31 -301 l-26
-293 27 -35 27 -35 76 6 c42 3 179 11 305 17 l229 11 99 -99 c55 -54 129 -134
166 -177 l67 -79 11 -841 c7 -463 10 -890 8 -951 -13 -334 -34 -941 -34 -989
l0 -55 115 -3 115 -3 -64 -143 c-189 -418 -482 -874 -823 -1278 -54 -64 -109
-130 -122 -146 l-24 -29 22 -112 c12 -62 26 -135 32 -164 l10 -52 277 -186
c152 -103 484 -326 737 -496 l459 -309 94 92 c246 243 616 642 861 928 509
593 972 1251 1251 1777 l65 122 791 1 792 0 6 68 c3 37 15 172 27 299 l21 233
-22 35 -22 35 -76 0 c-42 0 -230 -7 -417 -15 -187 -8 -444 -15 -572 -15 l-231
0 34 86 c99 253 224 677 250 849 l7 47 336 -7 336 -7 27 302 27 303 -27 34
c-26 32 -30 33 -77 29 -27 -3 -159 -8 -292 -12 l-243 -6 0 229 c0 239 -11 433
-35 593 -8 52 -11 98 -7 102 4 4 113 3 242 -2 129 -5 343 -12 476 -15 l241 -7
7 47 c3 26 6 61 6 76 0 16 3 29 8 29 4 0 59 -45 123 -99 467 -401 715 -890
796 -1574 24 -201 24 -635 -1 -807 -109 -775 -495 -1543 -1172 -2331 l-83 -96
33 -167 c18 -91 35 -168 37 -170 6 -5 1015 -683 1258 -845 l214 -143 114 113
c177 176 460 475 642 679 1257 1414 1960 2720 2146 3990 86 586 48 1255 -101
1760 -187 635 -574 1179 -1164 1636 -153 118 -488 334 -519 334 -17 0 -415
-200 -598 -301 -624 -344 -1249 -756 -1858 -1222 -200 -153 -200 -153 -203
-195 l-3 -42 -410 0 c-271 0 -409 3 -409 10 0 23 -124 289 -181 389 -225 393
-503 709 -884 1006 -170 132 -512 355 -545 355 -7 0 -117 -54 -246 -120z"/>
<path d="M2724 16182 c-674 -694 -1150 -1265 -1543 -1850 -708 -1056 -1082
-2005 -1172 -2973 -15 -172 -6 -764 15 -914 81 -590 230 -1023 479 -1395 238
-356 580 -687 998 -967 146 -98 307 -193 326 -193 21 0 444 217 673 345 597
333 1237 758 1822 1209 l158 121 0 187 0 186 -127 84 c-701 463 -1046 1034
-1128 1868 -20 203 -20 526 0 710 81 741 467 1538 1121 2314 60 71 115 138
123 148 13 18 11 37 -14 166 -15 81 -31 156 -35 168 -5 11 -170 129 -394 280
-212 142 -541 364 -731 492 -190 127 -349 232 -353 232 -4 0 -102 -98 -218
-218z"/>
<path d="M7994 16167 c-543 -552 -1034 -1131 -1413 -1664 l-72 -102 -73 57
c-181 144 -411 243 -671 288 -143 25 -473 30 -636 10 -252 -32 -456 -95 -636
-198 -471 -268 -747 -750 -818 -1428 -34 -318 -16 -751 41 -1010 175 -795 680
-1243 1450 -1287 l111 -6 7 -116 c31 -536 143 -983 347 -1393 134 -268 288
-477 539 -729 179 -180 331 -308 525 -444 113 -79 347 -227 389 -246 20 -10
48 1 216 86 777 389 1551 884 2338 1493 l122 95 0 178 0 179 -117 78 c-248
166 -447 338 -601 517 -88 103 -222 290 -222 311 0 5 68 8 157 6 527 -11 932
129 1204 415 153 161 261 374 304 597 13 67 15 275 15 1467 l0 1389 -362 0
-363 0 3 -182 c2 -101 11 -651 21 -1223 10 -593 14 -1083 9 -1140 -25 -312
-171 -531 -411 -615 -207 -73 -514 -63 -698 22 -56 26 -158 98 -170 120 -4 7
-15 81 -25 163 -25 208 -25 600 0 780 106 773 472 1514 1141 2311 64 76 114
142 112 148 -2 6 -17 78 -33 160 l-29 150 -56 40 c-31 23 -237 163 -458 311
-220 149 -517 348 -658 444 -142 95 -267 180 -279 187 -20 14 -33 2 -250 -219z
m-2371 -2091 c108 -32 184 -71 260 -131 58 -46 133 -139 168 -208 l20 -37 -60
-108 c-236 -428 -443 -930 -560 -1357 -62 -227 -105 -445 -147 -743 l-5 -32
-57 6 c-99 11 -239 51 -314 90 -51 27 -98 63 -154 119 -69 69 -90 98 -133 186
-121 248 -167 550 -158 1054 4 256 7 307 31 437 29 162 85 337 138 426 49 84
160 191 243 234 147 76 256 98 475 94 143 -3 177 -7 253 -30z"/>
<path d="M13040 14425 l5 -327 65 -27 c96 -38 167 -86 235 -156 181 -189 271
-494 295 -1000 20 -436 -24 -794 -127 -1039 -79 -188 -230 -332 -416 -395
l-52 -18 -3 -296 c-3 -338 -11 -308 86 -286 117 26 142 33 217 56 505 161 875
584 1025 1173 115 451 119 1052 10 1476 -143 553 -471 931 -945 1087 -97 32
-247 65 -335 73 l-65 6 5 -327z"/>
</g>
</svg>
